<mxfile host="Electron" agent="Mozilla/5.0 (Windows NT 10.0; Win64; x64) AppleWebKit/537.36 (KHTML, like Gecko) draw.io/26.2.2 Chrome/134.0.6998.178 Electron/35.1.2 Safari/537.36" version="26.2.2">
  <diagram name="Page-1" id="mRnKwZx_hHRazl6SGn37">
    <mxGraphModel dx="1789" dy="1101" grid="0" gridSize="10" guides="1" tooltips="1" connect="1" arrows="1" fold="1" page="0" pageScale="1" pageWidth="850" pageHeight="1100" math="0" shadow="0">
      <root>
        <mxCell id="0" />
        <mxCell id="1" parent="0" />
        <mxCell id="5Sux7Pri19NriH-9IWmC-1" value="USER" style="swimlane;fontStyle=0;childLayout=stackLayout;horizontal=1;startSize=30;horizontalStack=0;resizeParent=1;resizeParentMax=0;resizeLast=0;collapsible=1;marginBottom=0;whiteSpace=wrap;html=1;fillColor=#0050ef;fontColor=#ffffff;strokeColor=#001DBC;" parent="1" vertex="1">
          <mxGeometry x="40" y="-160" width="171" height="330" as="geometry" />
        </mxCell>
        <mxCell id="5Sux7Pri19NriH-9IWmC-2" value="user_id (PK)&amp;nbsp; &amp;nbsp; &amp;nbsp; &amp;nbsp; &amp;nbsp;varchar(36)" style="text;strokeColor=none;fillColor=none;align=left;verticalAlign=middle;spacingLeft=4;spacingRight=4;overflow=hidden;points=[[0,0.5],[1,0.5]];portConstraint=eastwest;rotatable=0;whiteSpace=wrap;html=1;" parent="5Sux7Pri19NriH-9IWmC-1" vertex="1">
          <mxGeometry y="30" width="171" height="30" as="geometry" />
        </mxCell>
        <mxCell id="5Sux7Pri19NriH-9IWmC-3" value="username&amp;nbsp; &amp;nbsp; &amp;nbsp; &amp;nbsp; &amp;nbsp; &amp;nbsp;varchar(255)" style="text;strokeColor=none;fillColor=none;align=left;verticalAlign=middle;spacingLeft=4;spacingRight=4;overflow=hidden;points=[[0,0.5],[1,0.5]];portConstraint=eastwest;rotatable=0;whiteSpace=wrap;html=1;" parent="5Sux7Pri19NriH-9IWmC-1" vertex="1">
          <mxGeometry y="60" width="171" height="30" as="geometry" />
        </mxCell>
        <mxCell id="5Sux7Pri19NriH-9IWmC-4" value="email&amp;nbsp; &amp;nbsp; &amp;nbsp; &amp;nbsp; &amp;nbsp; &amp;nbsp; &amp;nbsp; &amp;nbsp; &amp;nbsp; &amp;nbsp;varchar(255)" style="text;strokeColor=none;fillColor=none;align=left;verticalAlign=middle;spacingLeft=4;spacingRight=4;overflow=hidden;points=[[0,0.5],[1,0.5]];portConstraint=eastwest;rotatable=0;whiteSpace=wrap;html=1;" parent="5Sux7Pri19NriH-9IWmC-1" vertex="1">
          <mxGeometry y="90" width="171" height="30" as="geometry" />
        </mxCell>
        <mxCell id="5Sux7Pri19NriH-9IWmC-5" value="profile_picture&amp;nbsp; &amp;nbsp; varchar(255)" style="text;strokeColor=none;fillColor=none;align=left;verticalAlign=middle;spacingLeft=4;spacingRight=4;overflow=hidden;points=[[0,0.5],[1,0.5]];portConstraint=eastwest;rotatable=0;whiteSpace=wrap;html=1;" parent="5Sux7Pri19NriH-9IWmC-1" vertex="1">
          <mxGeometry y="120" width="171" height="30" as="geometry" />
        </mxCell>
        <mxCell id="CubVzrK9oFQtmD3eHUW8-6" value="gender&amp;nbsp; &amp;nbsp; &amp;nbsp; &amp;nbsp; &amp;nbsp; &amp;nbsp; &amp;nbsp; &amp;nbsp; &amp;nbsp; &amp;nbsp; &amp;nbsp; &amp;nbsp; &amp;nbsp; &amp;nbsp; text" style="text;strokeColor=none;fillColor=none;align=left;verticalAlign=middle;spacingLeft=4;spacingRight=4;overflow=hidden;points=[[0,0.5],[1,0.5]];portConstraint=eastwest;rotatable=0;whiteSpace=wrap;html=1;" parent="5Sux7Pri19NriH-9IWmC-1" vertex="1">
          <mxGeometry y="150" width="171" height="30" as="geometry" />
        </mxCell>
        <mxCell id="CubVzrK9oFQtmD3eHUW8-7" value="age&amp;nbsp; &amp;nbsp; &amp;nbsp; &amp;nbsp; &amp;nbsp; &amp;nbsp; &amp;nbsp; &amp;nbsp; &amp;nbsp; &amp;nbsp; &amp;nbsp; &amp;nbsp; &amp;nbsp; &amp;nbsp; &amp;nbsp; &amp;nbsp; &amp;nbsp; &amp;nbsp; int" style="text;strokeColor=none;fillColor=none;align=left;verticalAlign=middle;spacingLeft=4;spacingRight=4;overflow=hidden;points=[[0,0.5],[1,0.5]];portConstraint=eastwest;rotatable=0;whiteSpace=wrap;html=1;" parent="5Sux7Pri19NriH-9IWmC-1" vertex="1">
          <mxGeometry y="180" width="171" height="30" as="geometry" />
        </mxCell>
        <mxCell id="5Sux7Pri19NriH-9IWmC-6" value="bio&amp;nbsp; &amp;nbsp; &amp;nbsp; &amp;nbsp; &amp;nbsp; &amp;nbsp; &amp;nbsp; &amp;nbsp; &amp;nbsp; &amp;nbsp; &amp;nbsp; &amp;nbsp; &amp;nbsp; &amp;nbsp; &amp;nbsp; &amp;nbsp; &amp;nbsp; &amp;nbsp;text" style="text;strokeColor=none;fillColor=none;align=left;verticalAlign=middle;spacingLeft=4;spacingRight=4;overflow=hidden;points=[[0,0.5],[1,0.5]];portConstraint=eastwest;rotatable=0;whiteSpace=wrap;html=1;" parent="5Sux7Pri19NriH-9IWmC-1" vertex="1">
          <mxGeometry y="210" width="171" height="30" as="geometry" />
        </mxCell>
        <mxCell id="CubVzrK9oFQtmD3eHUW8-2" value="location&amp;nbsp; &amp;nbsp; &amp;nbsp; &amp;nbsp; &amp;nbsp; &amp;nbsp; &amp;nbsp; &amp;nbsp; &amp;nbsp; &amp;nbsp; &amp;nbsp; &amp;nbsp; &amp;nbsp; &amp;nbsp; text" style="text;strokeColor=none;fillColor=none;align=left;verticalAlign=middle;spacingLeft=4;spacingRight=4;overflow=hidden;points=[[0,0.5],[1,0.5]];portConstraint=eastwest;rotatable=0;whiteSpace=wrap;html=1;" parent="5Sux7Pri19NriH-9IWmC-1" vertex="1">
          <mxGeometry y="240" width="171" height="30" as="geometry" />
        </mxCell>
        <mxCell id="CubVzrK9oFQtmD3eHUW8-3" value="post_interest&amp;nbsp; &amp;nbsp; &amp;nbsp; &amp;nbsp; &amp;nbsp;varchar(45)" style="text;strokeColor=none;fillColor=none;align=left;verticalAlign=middle;spacingLeft=4;spacingRight=4;overflow=hidden;points=[[0,0.5],[1,0.5]];portConstraint=eastwest;rotatable=0;whiteSpace=wrap;html=1;" parent="5Sux7Pri19NriH-9IWmC-1" vertex="1">
          <mxGeometry y="270" width="171" height="30" as="geometry" />
        </mxCell>
        <mxCell id="5Sux7Pri19NriH-9IWmC-7" value="created_at&amp;nbsp; &amp;nbsp; &amp;nbsp; &amp;nbsp; &amp;nbsp; &amp;nbsp; &amp;nbsp; &amp;nbsp; datetime" style="text;strokeColor=none;fillColor=none;align=left;verticalAlign=middle;spacingLeft=4;spacingRight=4;overflow=hidden;points=[[0,0.5],[1,0.5]];portConstraint=eastwest;rotatable=0;whiteSpace=wrap;html=1;" parent="5Sux7Pri19NriH-9IWmC-1" vertex="1">
          <mxGeometry y="300" width="171" height="30" as="geometry" />
        </mxCell>
        <mxCell id="5Sux7Pri19NriH-9IWmC-8" value="POST" style="swimlane;fontStyle=0;childLayout=stackLayout;horizontal=1;startSize=30;horizontalStack=0;resizeParent=1;resizeParentMax=0;resizeLast=0;collapsible=1;marginBottom=0;whiteSpace=wrap;html=1;fillColor=#0050ef;fontColor=#ffffff;strokeColor=#001DBC;" parent="1" vertex="1">
          <mxGeometry x="510" y="-160" width="160" height="210" as="geometry" />
        </mxCell>
        <mxCell id="5Sux7Pri19NriH-9IWmC-9" value="post_id (PK)&amp;nbsp; &amp;nbsp; &amp;nbsp; varchar(36)" style="text;strokeColor=none;fillColor=none;align=left;verticalAlign=middle;spacingLeft=4;spacingRight=4;overflow=hidden;points=[[0,0.5],[1,0.5]];portConstraint=eastwest;rotatable=0;whiteSpace=wrap;html=1;" parent="5Sux7Pri19NriH-9IWmC-8" vertex="1">
          <mxGeometry y="30" width="160" height="30" as="geometry" />
        </mxCell>
        <mxCell id="5Sux7Pri19NriH-9IWmC-10" value="user_id (FK)&amp;nbsp; &amp;nbsp; &amp;nbsp; varchar(36)" style="text;strokeColor=none;fillColor=none;align=left;verticalAlign=middle;spacingLeft=4;spacingRight=4;overflow=hidden;points=[[0,0.5],[1,0.5]];portConstraint=eastwest;rotatable=0;whiteSpace=wrap;html=1;" parent="5Sux7Pri19NriH-9IWmC-8" vertex="1">
          <mxGeometry y="60" width="160" height="30" as="geometry" />
        </mxCell>
        <mxCell id="5Sux7Pri19NriH-9IWmC-11" value="caption&amp;nbsp; &amp;nbsp; &amp;nbsp; &amp;nbsp; &amp;nbsp; &amp;nbsp; &amp;nbsp; &amp;nbsp; &amp;nbsp; &amp;nbsp; &amp;nbsp; &amp;nbsp; &amp;nbsp; text" style="text;strokeColor=none;fillColor=none;align=left;verticalAlign=middle;spacingLeft=4;spacingRight=4;overflow=hidden;points=[[0,0.5],[1,0.5]];portConstraint=eastwest;rotatable=0;whiteSpace=wrap;html=1;" parent="5Sux7Pri19NriH-9IWmC-8" vertex="1">
          <mxGeometry y="90" width="160" height="30" as="geometry" />
        </mxCell>
        <mxCell id="5Sux7Pri19NriH-9IWmC-12" value="location&amp;nbsp; &amp;nbsp; &amp;nbsp; &amp;nbsp; &amp;nbsp; &amp;nbsp; varchar(255)" style="text;strokeColor=none;fillColor=none;align=left;verticalAlign=middle;spacingLeft=4;spacingRight=4;overflow=hidden;points=[[0,0.5],[1,0.5]];portConstraint=eastwest;rotatable=0;whiteSpace=wrap;html=1;" parent="5Sux7Pri19NriH-9IWmC-8" vertex="1">
          <mxGeometry y="120" width="160" height="30" as="geometry" />
        </mxCell>
        <mxCell id="CubVzrK9oFQtmD3eHUW8-1" value="post_type&amp;nbsp; &amp;nbsp; &amp;nbsp; &amp;nbsp; &amp;nbsp; varchar(45)" style="text;strokeColor=none;fillColor=none;align=left;verticalAlign=middle;spacingLeft=4;spacingRight=4;overflow=hidden;points=[[0,0.5],[1,0.5]];portConstraint=eastwest;rotatable=0;whiteSpace=wrap;html=1;" parent="5Sux7Pri19NriH-9IWmC-8" vertex="1">
          <mxGeometry y="150" width="160" height="30" as="geometry" />
        </mxCell>
        <mxCell id="5Sux7Pri19NriH-9IWmC-13" value="created_at&amp;nbsp; &amp;nbsp; &amp;nbsp; &amp;nbsp; &amp;nbsp; &amp;nbsp; &amp;nbsp; &amp;nbsp; &amp;nbsp; &amp;nbsp; time" style="text;strokeColor=none;fillColor=none;align=left;verticalAlign=middle;spacingLeft=4;spacingRight=4;overflow=hidden;points=[[0,0.5],[1,0.5]];portConstraint=eastwest;rotatable=0;whiteSpace=wrap;html=1;" parent="5Sux7Pri19NriH-9IWmC-8" vertex="1">
          <mxGeometry y="180" width="160" height="30" as="geometry" />
        </mxCell>
        <mxCell id="5Sux7Pri19NriH-9IWmC-21" value="MEDIA" style="swimlane;fontStyle=0;childLayout=stackLayout;horizontal=1;startSize=30;horizontalStack=0;resizeParent=1;resizeParentMax=0;resizeLast=0;collapsible=1;marginBottom=0;whiteSpace=wrap;html=1;fillColor=#0050ef;fontColor=#ffffff;strokeColor=#001DBC;" parent="1" vertex="1">
          <mxGeometry x="765" y="-189" width="185" height="210" as="geometry" />
        </mxCell>
        <mxCell id="5Sux7Pri19NriH-9IWmC-22" value="media_id (PK)&amp;nbsp; &amp;nbsp; &amp;nbsp; &amp;nbsp; &amp;nbsp; &amp;nbsp;varchar(36)" style="text;strokeColor=none;fillColor=none;align=left;verticalAlign=middle;spacingLeft=4;spacingRight=4;overflow=hidden;points=[[0,0.5],[1,0.5]];portConstraint=eastwest;rotatable=0;whiteSpace=wrap;html=1;" parent="5Sux7Pri19NriH-9IWmC-21" vertex="1">
          <mxGeometry y="30" width="185" height="30" as="geometry" />
        </mxCell>
        <mxCell id="5Sux7Pri19NriH-9IWmC-23" value="post_id (FK)&amp;nbsp; &amp;nbsp; &amp;nbsp; &amp;nbsp; &amp;nbsp; &amp;nbsp; &amp;nbsp; varchar(36)" style="text;strokeColor=none;fillColor=none;align=left;verticalAlign=middle;spacingLeft=4;spacingRight=4;overflow=hidden;points=[[0,0.5],[1,0.5]];portConstraint=eastwest;rotatable=0;whiteSpace=wrap;html=1;" parent="5Sux7Pri19NriH-9IWmC-21" vertex="1">
          <mxGeometry y="60" width="185" height="30" as="geometry" />
        </mxCell>
        <mxCell id="5Sux7Pri19NriH-9IWmC-24" value="media_url&amp;nbsp; &amp;nbsp; &amp;nbsp; &amp;nbsp; &amp;nbsp; &amp;nbsp; media_url(255)" style="text;strokeColor=none;fillColor=none;align=left;verticalAlign=middle;spacingLeft=4;spacingRight=4;overflow=hidden;points=[[0,0.5],[1,0.5]];portConstraint=eastwest;rotatable=0;whiteSpace=wrap;html=1;" parent="5Sux7Pri19NriH-9IWmC-21" vertex="1">
          <mxGeometry y="90" width="185" height="30" as="geometry" />
        </mxCell>
        <mxCell id="5Sux7Pri19NriH-9IWmC-25" value="media_type&amp;nbsp; &amp;nbsp; &amp;nbsp; &amp;nbsp; &amp;nbsp; &amp;nbsp; &amp;nbsp; varchar(50)" style="text;strokeColor=none;fillColor=none;align=left;verticalAlign=middle;spacingLeft=4;spacingRight=4;overflow=hidden;points=[[0,0.5],[1,0.5]];portConstraint=eastwest;rotatable=0;whiteSpace=wrap;html=1;" parent="5Sux7Pri19NriH-9IWmC-21" vertex="1">
          <mxGeometry y="120" width="185" height="30" as="geometry" />
        </mxCell>
        <mxCell id="CubVzrK9oFQtmD3eHUW8-4" value="media_size_kb&amp;nbsp; &amp;nbsp; &amp;nbsp; &amp;nbsp; &amp;nbsp; &amp;nbsp; &amp;nbsp; &amp;nbsp; &amp;nbsp; &amp;nbsp; &amp;nbsp; int" style="text;strokeColor=none;fillColor=none;align=left;verticalAlign=middle;spacingLeft=4;spacingRight=4;overflow=hidden;points=[[0,0.5],[1,0.5]];portConstraint=eastwest;rotatable=0;whiteSpace=wrap;html=1;" parent="5Sux7Pri19NriH-9IWmC-21" vertex="1">
          <mxGeometry y="150" width="185" height="30" as="geometry" />
        </mxCell>
        <mxCell id="5Sux7Pri19NriH-9IWmC-26" value="created_at" style="text;strokeColor=none;fillColor=none;align=left;verticalAlign=middle;spacingLeft=4;spacingRight=4;overflow=hidden;points=[[0,0.5],[1,0.5]];portConstraint=eastwest;rotatable=0;whiteSpace=wrap;html=1;" parent="5Sux7Pri19NriH-9IWmC-21" vertex="1">
          <mxGeometry y="180" width="185" height="30" as="geometry" />
        </mxCell>
        <mxCell id="5Sux7Pri19NriH-9IWmC-27" value="COMMENT" style="swimlane;fontStyle=0;childLayout=stackLayout;horizontal=1;startSize=30;horizontalStack=0;resizeParent=1;resizeParentMax=0;resizeLast=0;collapsible=1;marginBottom=0;whiteSpace=wrap;html=1;fillColor=#0050ef;fontColor=#ffffff;strokeColor=#001DBC;" parent="1" vertex="1">
          <mxGeometry x="743.5" y="71" width="218" height="180" as="geometry" />
        </mxCell>
        <mxCell id="5Sux7Pri19NriH-9IWmC-28" value="comment_id (PK)&amp;nbsp; &amp;nbsp; &amp;nbsp; &amp;nbsp; &amp;nbsp; &amp;nbsp; &amp;nbsp; &amp;nbsp; varchar(36)" style="text;strokeColor=none;fillColor=none;align=left;verticalAlign=middle;spacingLeft=4;spacingRight=4;overflow=hidden;points=[[0,0.5],[1,0.5]];portConstraint=eastwest;rotatable=0;whiteSpace=wrap;html=1;" parent="5Sux7Pri19NriH-9IWmC-27" vertex="1">
          <mxGeometry y="30" width="218" height="30" as="geometry" />
        </mxCell>
        <mxCell id="5Sux7Pri19NriH-9IWmC-29" value="post_id (FK)&amp;nbsp; &amp;nbsp; &amp;nbsp; &amp;nbsp; &amp;nbsp; &amp;nbsp; &amp;nbsp; &amp;nbsp; &amp;nbsp; &amp;nbsp; &amp;nbsp; &amp;nbsp; varchar(36)" style="text;strokeColor=none;fillColor=none;align=left;verticalAlign=middle;spacingLeft=4;spacingRight=4;overflow=hidden;points=[[0,0.5],[1,0.5]];portConstraint=eastwest;rotatable=0;whiteSpace=wrap;html=1;" parent="5Sux7Pri19NriH-9IWmC-27" vertex="1">
          <mxGeometry y="60" width="218" height="30" as="geometry" />
        </mxCell>
        <mxCell id="5Sux7Pri19NriH-9IWmC-30" value="user_id (FK)&amp;nbsp; &amp;nbsp; &amp;nbsp; &amp;nbsp; &amp;nbsp; &amp;nbsp; &amp;nbsp; &amp;nbsp; &amp;nbsp; &amp;nbsp; &amp;nbsp; &amp;nbsp; varchar(36)" style="text;strokeColor=none;fillColor=none;align=left;verticalAlign=middle;spacingLeft=4;spacingRight=4;overflow=hidden;points=[[0,0.5],[1,0.5]];portConstraint=eastwest;rotatable=0;whiteSpace=wrap;html=1;" parent="5Sux7Pri19NriH-9IWmC-27" vertex="1">
          <mxGeometry y="90" width="218" height="30" as="geometry" />
        </mxCell>
        <mxCell id="5Sux7Pri19NriH-9IWmC-31" value="content&amp;nbsp; &amp;nbsp; &amp;nbsp; &amp;nbsp; &amp;nbsp; &amp;nbsp; &amp;nbsp; &amp;nbsp; &amp;nbsp; &amp;nbsp; &amp;nbsp; &amp;nbsp; &amp;nbsp; &amp;nbsp; &amp;nbsp; &amp;nbsp; &amp;nbsp; &amp;nbsp; &amp;nbsp; &amp;nbsp; &amp;nbsp; &amp;nbsp; text" style="text;strokeColor=none;fillColor=none;align=left;verticalAlign=middle;spacingLeft=4;spacingRight=4;overflow=hidden;points=[[0,0.5],[1,0.5]];portConstraint=eastwest;rotatable=0;whiteSpace=wrap;html=1;" parent="5Sux7Pri19NriH-9IWmC-27" vertex="1">
          <mxGeometry y="120" width="218" height="30" as="geometry" />
        </mxCell>
        <mxCell id="5Sux7Pri19NriH-9IWmC-32" value="created_at&amp;nbsp; &amp;nbsp; &amp;nbsp; &amp;nbsp; &amp;nbsp; &amp;nbsp; &amp;nbsp; &amp;nbsp; &amp;nbsp; &amp;nbsp; &amp;nbsp; &amp;nbsp; &amp;nbsp; &amp;nbsp; &amp;nbsp; datetime" style="text;strokeColor=none;fillColor=none;align=left;verticalAlign=middle;spacingLeft=4;spacingRight=4;overflow=hidden;points=[[0,0.5],[1,0.5]];portConstraint=eastwest;rotatable=0;whiteSpace=wrap;html=1;" parent="5Sux7Pri19NriH-9IWmC-27" vertex="1">
          <mxGeometry y="150" width="218" height="30" as="geometry" />
        </mxCell>
        <mxCell id="5Sux7Pri19NriH-9IWmC-33" value="POST_REACTIONS" style="swimlane;fontStyle=0;childLayout=stackLayout;horizontal=1;startSize=30;horizontalStack=0;resizeParent=1;resizeParentMax=0;resizeLast=0;collapsible=1;marginBottom=0;whiteSpace=wrap;html=1;fillColor=#0050ef;fontColor=#ffffff;strokeColor=#001DBC;" parent="1" vertex="1">
          <mxGeometry x="268" y="61" width="193" height="180" as="geometry" />
        </mxCell>
        <mxCell id="wARrQUF_dLnW1kWLvT3m-2" value="post_react_id (PK)&amp;nbsp; &amp;nbsp; &amp;nbsp; varchar(36)" style="text;strokeColor=none;fillColor=none;align=left;verticalAlign=middle;spacingLeft=4;spacingRight=4;overflow=hidden;points=[[0,0.5],[1,0.5]];portConstraint=eastwest;rotatable=0;whiteSpace=wrap;html=1;" vertex="1" parent="5Sux7Pri19NriH-9IWmC-33">
          <mxGeometry y="30" width="193" height="30" as="geometry" />
        </mxCell>
        <mxCell id="5Sux7Pri19NriH-9IWmC-34" value="user_id (FK)&amp;nbsp; &amp;nbsp; &amp;nbsp; &amp;nbsp; &amp;nbsp; &amp;nbsp; &amp;nbsp; &amp;nbsp; varchar(36)" style="text;align=left;verticalAlign=middle;spacingLeft=4;spacingRight=4;overflow=hidden;points=[[0,0.5],[1,0.5]];portConstraint=eastwest;rotatable=0;whiteSpace=wrap;html=1;" parent="5Sux7Pri19NriH-9IWmC-33" vertex="1">
          <mxGeometry y="60" width="193" height="30" as="geometry" />
        </mxCell>
        <mxCell id="5Sux7Pri19NriH-9IWmC-35" value="post_id (FK)&amp;nbsp; &amp;nbsp; &amp;nbsp; &amp;nbsp; &amp;nbsp; &amp;nbsp; &amp;nbsp; &amp;nbsp; varchar(36)" style="text;strokeColor=none;fillColor=none;align=left;verticalAlign=middle;spacingLeft=4;spacingRight=4;overflow=hidden;points=[[0,0.5],[1,0.5]];portConstraint=eastwest;rotatable=0;whiteSpace=wrap;html=1;" parent="5Sux7Pri19NriH-9IWmC-33" vertex="1">
          <mxGeometry y="90" width="193" height="30" as="geometry" />
        </mxCell>
        <mxCell id="MXvUK92-F01Mqr0vnkUZ-1" value="emotion_id (FK)&amp;nbsp; &amp;nbsp; &amp;nbsp; &amp;nbsp; &amp;nbsp; varchar(36)" style="text;strokeColor=none;fillColor=none;align=left;verticalAlign=middle;spacingLeft=4;spacingRight=4;overflow=hidden;points=[[0,0.5],[1,0.5]];portConstraint=eastwest;rotatable=0;whiteSpace=wrap;html=1;" parent="5Sux7Pri19NriH-9IWmC-33" vertex="1">
          <mxGeometry y="120" width="193" height="30" as="geometry" />
        </mxCell>
        <mxCell id="5Sux7Pri19NriH-9IWmC-36" value="created_at&amp;nbsp; &amp;nbsp; &amp;nbsp; &amp;nbsp; &amp;nbsp; &amp;nbsp; &amp;nbsp; &amp;nbsp; &amp;nbsp; &amp;nbsp; &amp;nbsp; &amp;nbsp;datetime" style="text;strokeColor=none;fillColor=none;align=left;verticalAlign=middle;spacingLeft=4;spacingRight=4;overflow=hidden;points=[[0,0.5],[1,0.5]];portConstraint=eastwest;rotatable=0;whiteSpace=wrap;html=1;" parent="5Sux7Pri19NriH-9IWmC-33" vertex="1">
          <mxGeometry y="150" width="193" height="30" as="geometry" />
        </mxCell>
        <mxCell id="5Sux7Pri19NriH-9IWmC-39" value="COMMENT_REACTIONS" style="swimlane;fontStyle=0;childLayout=stackLayout;horizontal=1;startSize=30;horizontalStack=0;resizeParent=1;resizeParentMax=0;resizeLast=0;collapsible=1;marginBottom=0;whiteSpace=wrap;html=1;fillColor=#0050ef;fontColor=#ffffff;strokeColor=#001DBC;" parent="1" vertex="1">
          <mxGeometry x="281" y="-375" width="229" height="180" as="geometry" />
        </mxCell>
        <mxCell id="ThHsMFm0xfjYfEIbYlQ4-17" value="comment_react_id (PK)&amp;nbsp; &amp;nbsp; &amp;nbsp; &amp;nbsp; &amp;nbsp;varchar(36)" style="text;strokeColor=none;fillColor=none;align=left;verticalAlign=middle;spacingLeft=4;spacingRight=4;overflow=hidden;points=[[0,0.5],[1,0.5]];portConstraint=eastwest;rotatable=0;whiteSpace=wrap;html=1;" parent="5Sux7Pri19NriH-9IWmC-39" vertex="1">
          <mxGeometry y="30" width="229" height="30" as="geometry" />
        </mxCell>
        <mxCell id="5Sux7Pri19NriH-9IWmC-40" value="user_id (FK)&amp;nbsp; &amp;nbsp; &amp;nbsp; &amp;nbsp; &amp;nbsp; &amp;nbsp; &amp;nbsp; &amp;nbsp; &amp;nbsp; &amp;nbsp; &amp;nbsp; &amp;nbsp; &amp;nbsp; &amp;nbsp;varchar(36)" style="text;strokeColor=none;fillColor=none;align=left;verticalAlign=middle;spacingLeft=4;spacingRight=4;overflow=hidden;points=[[0,0.5],[1,0.5]];portConstraint=eastwest;rotatable=0;whiteSpace=wrap;html=1;" parent="5Sux7Pri19NriH-9IWmC-39" vertex="1">
          <mxGeometry y="60" width="229" height="30" as="geometry" />
        </mxCell>
        <mxCell id="ThHsMFm0xfjYfEIbYlQ4-12" value="comment_id (FK)&amp;nbsp; &amp;nbsp; &amp;nbsp; &amp;nbsp; &amp;nbsp; &amp;nbsp; &amp;nbsp; &amp;nbsp; &amp;nbsp; &amp;nbsp;varchar(36)" style="text;strokeColor=none;fillColor=none;align=left;verticalAlign=middle;spacingLeft=4;spacingRight=4;overflow=hidden;points=[[0,0.5],[1,0.5]];portConstraint=eastwest;rotatable=0;whiteSpace=wrap;html=1;" parent="5Sux7Pri19NriH-9IWmC-39" vertex="1">
          <mxGeometry y="90" width="229" height="30" as="geometry" />
        </mxCell>
        <mxCell id="MXvUK92-F01Mqr0vnkUZ-2" value="emotion_id (FK)&amp;nbsp; &amp;nbsp; &amp;nbsp; &amp;nbsp; &amp;nbsp; &amp;nbsp; &amp;nbsp; &amp;nbsp; &amp;nbsp; &amp;nbsp; &amp;nbsp;varchar(36)" style="text;strokeColor=none;fillColor=none;align=left;verticalAlign=middle;spacingLeft=4;spacingRight=4;overflow=hidden;points=[[0,0.5],[1,0.5]];portConstraint=eastwest;rotatable=0;whiteSpace=wrap;html=1;" parent="5Sux7Pri19NriH-9IWmC-39" vertex="1">
          <mxGeometry y="120" width="229" height="30" as="geometry" />
        </mxCell>
        <mxCell id="5Sux7Pri19NriH-9IWmC-42" value="created_at&amp;nbsp; &amp;nbsp; &amp;nbsp; &amp;nbsp; &amp;nbsp; &amp;nbsp; &amp;nbsp; &amp;nbsp; &amp;nbsp; &amp;nbsp; &amp;nbsp; &amp;nbsp; &amp;nbsp; &amp;nbsp; &amp;nbsp; &amp;nbsp; &amp;nbsp;datetime" style="text;strokeColor=none;fillColor=none;align=left;verticalAlign=middle;spacingLeft=4;spacingRight=4;overflow=hidden;points=[[0,0.5],[1,0.5]];portConstraint=eastwest;rotatable=0;whiteSpace=wrap;html=1;" parent="5Sux7Pri19NriH-9IWmC-39" vertex="1">
          <mxGeometry y="150" width="229" height="30" as="geometry" />
        </mxCell>
        <mxCell id="5Sux7Pri19NriH-9IWmC-49" value="HASHTAG" style="swimlane;fontStyle=0;childLayout=stackLayout;horizontal=1;startSize=30;horizontalStack=0;resizeParent=1;resizeParentMax=0;resizeLast=0;collapsible=1;marginBottom=0;whiteSpace=wrap;html=1;fillColor=#0050ef;fontColor=#ffffff;strokeColor=#001DBC;" parent="1" vertex="1">
          <mxGeometry x="755" y="-354" width="195" height="150" as="geometry" />
        </mxCell>
        <mxCell id="ThHsMFm0xfjYfEIbYlQ4-27" value="hastag_id (PK)&amp;nbsp; &amp;nbsp; &amp;nbsp; &amp;nbsp; &amp;nbsp; &amp;nbsp; &amp;nbsp;varchar(36)" style="text;strokeColor=none;fillColor=none;align=left;verticalAlign=middle;spacingLeft=4;spacingRight=4;overflow=hidden;points=[[0,0.5],[1,0.5]];portConstraint=eastwest;rotatable=0;whiteSpace=wrap;html=1;" parent="5Sux7Pri19NriH-9IWmC-49" vertex="1">
          <mxGeometry y="30" width="195" height="30" as="geometry" />
        </mxCell>
        <mxCell id="5Sux7Pri19NriH-9IWmC-50" value="post_id ( FK)&amp;nbsp; &amp;nbsp; &amp;nbsp; &amp;nbsp; &amp;nbsp; &amp;nbsp; &amp;nbsp; &amp;nbsp; varchar(36)" style="text;strokeColor=none;fillColor=none;align=left;verticalAlign=middle;spacingLeft=4;spacingRight=4;overflow=hidden;points=[[0,0.5],[1,0.5]];portConstraint=eastwest;rotatable=0;whiteSpace=wrap;html=1;" parent="5Sux7Pri19NriH-9IWmC-49" vertex="1">
          <mxGeometry y="60" width="195" height="30" as="geometry" />
        </mxCell>
        <mxCell id="ThHsMFm0xfjYfEIbYlQ4-28" value="hastag_name&amp;nbsp; &amp;nbsp; &amp;nbsp; &amp;nbsp; &amp;nbsp; &amp;nbsp; &amp;nbsp; &amp;nbsp;varchar(50)" style="text;strokeColor=none;fillColor=none;align=left;verticalAlign=middle;spacingLeft=4;spacingRight=4;overflow=hidden;points=[[0,0.5],[1,0.5]];portConstraint=eastwest;rotatable=0;whiteSpace=wrap;html=1;" parent="5Sux7Pri19NriH-9IWmC-49" vertex="1">
          <mxGeometry y="90" width="195" height="30" as="geometry" />
        </mxCell>
        <mxCell id="5Sux7Pri19NriH-9IWmC-52" value="created_at&amp;nbsp; &amp;nbsp; &amp;nbsp; &amp;nbsp; &amp;nbsp; &amp;nbsp; &amp;nbsp; &amp;nbsp; &amp;nbsp; &amp;nbsp; &amp;nbsp; &amp;nbsp; &amp;nbsp; &amp;nbsp; &amp;nbsp; &amp;nbsp;time" style="text;strokeColor=none;fillColor=none;align=left;verticalAlign=middle;spacingLeft=4;spacingRight=4;overflow=hidden;points=[[0,0.5],[1,0.5]];portConstraint=eastwest;rotatable=0;whiteSpace=wrap;html=1;" parent="5Sux7Pri19NriH-9IWmC-49" vertex="1">
          <mxGeometry y="120" width="195" height="30" as="geometry" />
        </mxCell>
        <mxCell id="5Sux7Pri19NriH-9IWmC-61" value="FOLLOW" style="swimlane;fontStyle=0;childLayout=stackLayout;horizontal=1;startSize=30;horizontalStack=0;resizeParent=1;resizeParentMax=0;resizeLast=0;collapsible=1;marginBottom=0;whiteSpace=wrap;html=1;fillColor=#0050ef;fontColor=#ffffff;strokeColor=#001DBC;" parent="1" vertex="1">
          <mxGeometry x="-211" y="-85" width="181" height="180" as="geometry" />
        </mxCell>
        <mxCell id="5Sux7Pri19NriH-9IWmC-62" value="follow_id (PK)&amp;nbsp; &amp;nbsp; &amp;nbsp; &amp;nbsp; &amp;nbsp; varchar(36)" style="text;strokeColor=none;fillColor=none;align=left;verticalAlign=middle;spacingLeft=4;spacingRight=4;overflow=hidden;points=[[0,0.5],[1,0.5]];portConstraint=eastwest;rotatable=0;whiteSpace=wrap;html=1;" parent="5Sux7Pri19NriH-9IWmC-61" vertex="1">
          <mxGeometry y="30" width="181" height="30" as="geometry" />
        </mxCell>
        <mxCell id="5Sux7Pri19NriH-9IWmC-63" value="follower_id (FK)&amp;nbsp; &amp;nbsp; &amp;nbsp; &amp;nbsp;varchar(36)" style="text;strokeColor=none;fillColor=none;align=left;verticalAlign=middle;spacingLeft=4;spacingRight=4;overflow=hidden;points=[[0,0.5],[1,0.5]];portConstraint=eastwest;rotatable=0;whiteSpace=wrap;html=1;" parent="5Sux7Pri19NriH-9IWmC-61" vertex="1">
          <mxGeometry y="60" width="181" height="30" as="geometry" />
        </mxCell>
        <mxCell id="ThHsMFm0xfjYfEIbYlQ4-32" style="edgeStyle=orthogonalEdgeStyle;rounded=0;orthogonalLoop=1;jettySize=auto;html=1;exitX=1;exitY=0.5;exitDx=0;exitDy=0;endArrow=none;startFill=0;" parent="5Sux7Pri19NriH-9IWmC-61" source="ThHsMFm0xfjYfEIbYlQ4-31" edge="1">
          <mxGeometry relative="1" as="geometry">
            <mxPoint x="215.84210526315792" y="65.63157894736844" as="targetPoint" />
          </mxGeometry>
        </mxCell>
        <mxCell id="ThHsMFm0xfjYfEIbYlQ4-33" value="n" style="edgeLabel;html=1;align=center;verticalAlign=middle;resizable=0;points=[];" parent="ThHsMFm0xfjYfEIbYlQ4-32" vertex="1" connectable="0">
          <mxGeometry x="-0.3489" y="1" relative="1" as="geometry">
            <mxPoint as="offset" />
          </mxGeometry>
        </mxCell>
        <mxCell id="ThHsMFm0xfjYfEIbYlQ4-31" value="followee_id (FK)&amp;nbsp; &amp;nbsp; &amp;nbsp; varchar(36)" style="text;strokeColor=none;fillColor=none;align=left;verticalAlign=middle;spacingLeft=4;spacingRight=4;overflow=hidden;points=[[0,0.5],[1,0.5]];portConstraint=eastwest;rotatable=0;whiteSpace=wrap;html=1;" parent="5Sux7Pri19NriH-9IWmC-61" vertex="1">
          <mxGeometry y="90" width="181" height="30" as="geometry" />
        </mxCell>
        <mxCell id="R-nzXU2yob0D8B3e0xeo-10" value="followee_type&amp;nbsp; &amp;nbsp; &amp;nbsp; &amp;nbsp; &amp;nbsp; varchar(36)" style="text;strokeColor=none;fillColor=none;align=left;verticalAlign=middle;spacingLeft=4;spacingRight=4;overflow=hidden;points=[[0,0.5],[1,0.5]];portConstraint=eastwest;rotatable=0;whiteSpace=wrap;html=1;" parent="5Sux7Pri19NriH-9IWmC-61" vertex="1">
          <mxGeometry y="120" width="181" height="30" as="geometry" />
        </mxCell>
        <mxCell id="5Sux7Pri19NriH-9IWmC-64" value="created_at&amp;nbsp; &amp;nbsp; &amp;nbsp; &amp;nbsp; &amp;nbsp; &amp;nbsp; &amp;nbsp; &amp;nbsp; &amp;nbsp; datetime" style="text;strokeColor=none;fillColor=none;align=left;verticalAlign=middle;spacingLeft=4;spacingRight=4;overflow=hidden;points=[[0,0.5],[1,0.5]];portConstraint=eastwest;rotatable=0;whiteSpace=wrap;html=1;" parent="5Sux7Pri19NriH-9IWmC-61" vertex="1">
          <mxGeometry y="150" width="181" height="30" as="geometry" />
        </mxCell>
        <mxCell id="5Sux7Pri19NriH-9IWmC-70" style="edgeStyle=orthogonalEdgeStyle;rounded=0;orthogonalLoop=1;jettySize=auto;html=1;exitX=1.001;exitY=0.868;exitDx=0;exitDy=0;entryX=0;entryY=0.5;entryDx=0;entryDy=0;endArrow=none;startFill=0;startArrow=none;endFill=0;exitPerimeter=0;" parent="1" source="5Sux7Pri19NriH-9IWmC-2" target="5Sux7Pri19NriH-9IWmC-34" edge="1">
          <mxGeometry relative="1" as="geometry">
            <mxPoint x="133.5" y="-89" as="sourcePoint" />
            <mxPoint x="446.5" y="-90" as="targetPoint" />
          </mxGeometry>
        </mxCell>
        <mxCell id="R4HliJlcqpmC4gIvW3pp-20" value="1" style="edgeLabel;html=1;align=center;verticalAlign=middle;resizable=0;points=[];" parent="5Sux7Pri19NriH-9IWmC-70" vertex="1" connectable="0">
          <mxGeometry x="-0.9298" y="-1" relative="1" as="geometry">
            <mxPoint as="offset" />
          </mxGeometry>
        </mxCell>
        <mxCell id="R4HliJlcqpmC4gIvW3pp-21" value="n" style="edgeLabel;html=1;align=center;verticalAlign=middle;resizable=0;points=[];" parent="5Sux7Pri19NriH-9IWmC-70" vertex="1" connectable="0">
          <mxGeometry x="0.9287" relative="1" as="geometry">
            <mxPoint as="offset" />
          </mxGeometry>
        </mxCell>
        <mxCell id="R4HliJlcqpmC4gIvW3pp-22" value="reaction" style="edgeLabel;html=1;align=center;verticalAlign=middle;resizable=0;points=[];" parent="5Sux7Pri19NriH-9IWmC-70" vertex="1" connectable="0">
          <mxGeometry x="-0.0674" relative="1" as="geometry">
            <mxPoint as="offset" />
          </mxGeometry>
        </mxCell>
        <mxCell id="5Sux7Pri19NriH-9IWmC-71" style="edgeStyle=orthogonalEdgeStyle;rounded=0;orthogonalLoop=1;jettySize=auto;html=1;exitX=1;exitY=0.5;exitDx=0;exitDy=0;entryX=0;entryY=0.5;entryDx=0;entryDy=0;endArrow=none;startFill=0;startArrow=none;endFill=0;" parent="1" source="5Sux7Pri19NriH-9IWmC-2" target="5Sux7Pri19NriH-9IWmC-10" edge="1">
          <mxGeometry relative="1" as="geometry">
            <mxPoint x="159.52" y="-153" as="sourcePoint" />
            <mxPoint x="249.52" y="-115" as="targetPoint" />
            <Array as="points">
              <mxPoint x="412" y="-115" />
              <mxPoint x="412" y="-85" />
            </Array>
          </mxGeometry>
        </mxCell>
        <mxCell id="R4HliJlcqpmC4gIvW3pp-1" value="1" style="edgeLabel;html=1;align=center;verticalAlign=middle;resizable=0;points=[];" parent="5Sux7Pri19NriH-9IWmC-71" vertex="1" connectable="0">
          <mxGeometry x="-0.7527" y="2" relative="1" as="geometry">
            <mxPoint as="offset" />
          </mxGeometry>
        </mxCell>
        <mxCell id="R4HliJlcqpmC4gIvW3pp-2" value="n" style="edgeLabel;html=1;align=center;verticalAlign=middle;resizable=0;points=[];" parent="5Sux7Pri19NriH-9IWmC-71" vertex="1" connectable="0">
          <mxGeometry x="0.7402" y="-2" relative="1" as="geometry">
            <mxPoint as="offset" />
          </mxGeometry>
        </mxCell>
        <mxCell id="R4HliJlcqpmC4gIvW3pp-3" value="uploaded" style="edgeLabel;html=1;align=center;verticalAlign=middle;resizable=0;points=[];" parent="5Sux7Pri19NriH-9IWmC-71" vertex="1" connectable="0">
          <mxGeometry x="-0.0399" relative="1" as="geometry">
            <mxPoint as="offset" />
          </mxGeometry>
        </mxCell>
        <mxCell id="5Sux7Pri19NriH-9IWmC-72" style="edgeStyle=orthogonalEdgeStyle;rounded=0;orthogonalLoop=1;jettySize=auto;html=1;exitX=1;exitY=0.5;exitDx=0;exitDy=0;entryX=-0.011;entryY=0.813;entryDx=0;entryDy=0;endArrow=none;startFill=0;startArrow=none;endFill=0;entryPerimeter=0;" parent="1" source="5Sux7Pri19NriH-9IWmC-35" target="5Sux7Pri19NriH-9IWmC-9" edge="1">
          <mxGeometry relative="1" as="geometry">
            <mxPoint x="390" y="-10" as="sourcePoint" />
            <mxPoint x="470" y="28" as="targetPoint" />
          </mxGeometry>
        </mxCell>
        <mxCell id="ThHsMFm0xfjYfEIbYlQ4-2" value="1" style="edgeLabel;html=1;align=center;verticalAlign=middle;resizable=0;points=[];" parent="5Sux7Pri19NriH-9IWmC-72" vertex="1" connectable="0">
          <mxGeometry x="0.8687" y="-4" relative="1" as="geometry">
            <mxPoint as="offset" />
          </mxGeometry>
        </mxCell>
        <mxCell id="ThHsMFm0xfjYfEIbYlQ4-4" value="n" style="edgeLabel;html=1;align=center;verticalAlign=middle;resizable=0;points=[];" parent="5Sux7Pri19NriH-9IWmC-72" vertex="1" connectable="0">
          <mxGeometry x="-0.9292" y="2" relative="1" as="geometry">
            <mxPoint as="offset" />
          </mxGeometry>
        </mxCell>
        <mxCell id="5Sux7Pri19NriH-9IWmC-73" style="edgeStyle=orthogonalEdgeStyle;rounded=0;orthogonalLoop=1;jettySize=auto;html=1;exitX=0.994;exitY=0.244;exitDx=0;exitDy=0;entryX=0;entryY=0.5;entryDx=0;entryDy=0;endArrow=none;startFill=0;startArrow=none;endFill=0;exitPerimeter=0;" parent="1" source="5Sux7Pri19NriH-9IWmC-2" target="5Sux7Pri19NriH-9IWmC-40" edge="1">
          <mxGeometry relative="1" as="geometry">
            <mxPoint x="110" y="-230" as="sourcePoint" />
            <mxPoint x="190" y="-193" as="targetPoint" />
          </mxGeometry>
        </mxCell>
        <mxCell id="R4HliJlcqpmC4gIvW3pp-16" value="1" style="edgeLabel;html=1;align=center;verticalAlign=middle;resizable=0;points=[];" parent="5Sux7Pri19NriH-9IWmC-73" vertex="1" connectable="0">
          <mxGeometry x="-0.9034" y="1" relative="1" as="geometry">
            <mxPoint as="offset" />
          </mxGeometry>
        </mxCell>
        <mxCell id="R4HliJlcqpmC4gIvW3pp-17" value="n" style="edgeLabel;html=1;align=center;verticalAlign=middle;resizable=0;points=[];" parent="5Sux7Pri19NriH-9IWmC-73" vertex="1" connectable="0">
          <mxGeometry x="0.8974" y="1" relative="1" as="geometry">
            <mxPoint as="offset" />
          </mxGeometry>
        </mxCell>
        <mxCell id="R4HliJlcqpmC4gIvW3pp-19" value="comment" style="edgeLabel;html=1;align=center;verticalAlign=middle;resizable=0;points=[];" parent="5Sux7Pri19NriH-9IWmC-73" vertex="1" connectable="0">
          <mxGeometry x="-0.036" y="1" relative="1" as="geometry">
            <mxPoint as="offset" />
          </mxGeometry>
        </mxCell>
        <mxCell id="R-nzXU2yob0D8B3e0xeo-13" value="n" style="edgeLabel;html=1;align=center;verticalAlign=middle;resizable=0;points=[];" parent="5Sux7Pri19NriH-9IWmC-73" vertex="1" connectable="0">
          <mxGeometry x="0.8974" y="1" relative="1" as="geometry">
            <mxPoint x="6" y="52" as="offset" />
          </mxGeometry>
        </mxCell>
        <mxCell id="R-nzXU2yob0D8B3e0xeo-14" value="n" style="edgeLabel;html=1;align=center;verticalAlign=middle;resizable=0;points=[];" parent="5Sux7Pri19NriH-9IWmC-73" vertex="1" connectable="0">
          <mxGeometry x="0.8974" y="1" relative="1" as="geometry">
            <mxPoint x="-13" y="488" as="offset" />
          </mxGeometry>
        </mxCell>
        <mxCell id="5Sux7Pri19NriH-9IWmC-80" style="edgeStyle=orthogonalEdgeStyle;rounded=0;orthogonalLoop=1;jettySize=auto;html=1;endArrow=none;startFill=0;startArrow=none;endFill=0;entryX=0;entryY=0.5;entryDx=0;entryDy=0;" parent="1" target="5Sux7Pri19NriH-9IWmC-50" edge="1">
          <mxGeometry relative="1" as="geometry">
            <mxPoint x="670" y="-124" as="sourcePoint" />
            <mxPoint x="620" y="-300" as="targetPoint" />
            <Array as="points">
              <mxPoint x="702" y="-124" />
              <mxPoint x="702" y="-279" />
            </Array>
          </mxGeometry>
        </mxCell>
        <mxCell id="R4HliJlcqpmC4gIvW3pp-26" value="1" style="edgeLabel;html=1;align=center;verticalAlign=middle;resizable=0;points=[];" parent="5Sux7Pri19NriH-9IWmC-80" vertex="1" connectable="0">
          <mxGeometry x="-0.9174" y="4" relative="1" as="geometry">
            <mxPoint as="offset" />
          </mxGeometry>
        </mxCell>
        <mxCell id="R4HliJlcqpmC4gIvW3pp-27" value="n" style="edgeLabel;html=1;align=center;verticalAlign=middle;resizable=0;points=[];" parent="5Sux7Pri19NriH-9IWmC-80" vertex="1" connectable="0">
          <mxGeometry x="0.8462" y="-1" relative="1" as="geometry">
            <mxPoint x="1" as="offset" />
          </mxGeometry>
        </mxCell>
        <mxCell id="R4HliJlcqpmC4gIvW3pp-28" value="Has" style="edgeLabel;html=1;align=center;verticalAlign=middle;resizable=0;points=[];" parent="5Sux7Pri19NriH-9IWmC-80" vertex="1" connectable="0">
          <mxGeometry x="-0.1677" y="2" relative="1" as="geometry">
            <mxPoint as="offset" />
          </mxGeometry>
        </mxCell>
        <mxCell id="5Sux7Pri19NriH-9IWmC-82" style="edgeStyle=orthogonalEdgeStyle;rounded=0;orthogonalLoop=1;jettySize=auto;html=1;endArrow=none;startFill=0;startArrow=none;endFill=0;entryX=0;entryY=0.5;entryDx=0;entryDy=0;exitX=1.002;exitY=0.748;exitDx=0;exitDy=0;exitPerimeter=0;" parent="1" source="5Sux7Pri19NriH-9IWmC-9" target="5Sux7Pri19NriH-9IWmC-29" edge="1">
          <mxGeometry relative="1" as="geometry">
            <mxPoint x="600" y="-108" as="sourcePoint" />
            <mxPoint x="660" y="80" as="targetPoint" />
            <Array as="points">
              <mxPoint x="701" y="-108" />
              <mxPoint x="701" y="146" />
            </Array>
          </mxGeometry>
        </mxCell>
        <mxCell id="R4HliJlcqpmC4gIvW3pp-23" value="1" style="edgeLabel;html=1;align=center;verticalAlign=middle;resizable=0;points=[];" parent="5Sux7Pri19NriH-9IWmC-82" vertex="1" connectable="0">
          <mxGeometry x="-0.9213" y="-3" relative="1" as="geometry">
            <mxPoint as="offset" />
          </mxGeometry>
        </mxCell>
        <mxCell id="R4HliJlcqpmC4gIvW3pp-24" value="n" style="edgeLabel;html=1;align=center;verticalAlign=middle;resizable=0;points=[];" parent="5Sux7Pri19NriH-9IWmC-82" vertex="1" connectable="0">
          <mxGeometry x="0.918" y="1" relative="1" as="geometry">
            <mxPoint as="offset" />
          </mxGeometry>
        </mxCell>
        <mxCell id="R4HliJlcqpmC4gIvW3pp-25" value="Has" style="edgeLabel;html=1;align=center;verticalAlign=middle;resizable=0;points=[];" parent="5Sux7Pri19NriH-9IWmC-82" vertex="1" connectable="0">
          <mxGeometry x="-0.1619" y="-4" relative="1" as="geometry">
            <mxPoint as="offset" />
          </mxGeometry>
        </mxCell>
        <mxCell id="5Sux7Pri19NriH-9IWmC-87" value="LOGIN" style="swimlane;fontStyle=0;childLayout=stackLayout;horizontal=1;startSize=30;horizontalStack=0;resizeParent=1;resizeParentMax=0;resizeLast=0;collapsible=1;marginBottom=0;whiteSpace=wrap;html=1;fillColor=#0050ef;fontColor=#ffffff;strokeColor=#001DBC;" parent="1" vertex="1">
          <mxGeometry x="51" y="-345" width="160" height="150" as="geometry" />
        </mxCell>
        <mxCell id="5Sux7Pri19NriH-9IWmC-88" value="login_id (PK)&amp;nbsp; &amp;nbsp; &amp;nbsp;varchar(36)" style="text;strokeColor=none;fillColor=none;align=left;verticalAlign=middle;spacingLeft=4;spacingRight=4;overflow=hidden;points=[[0,0.5],[1,0.5]];portConstraint=eastwest;rotatable=0;whiteSpace=wrap;html=1;" parent="5Sux7Pri19NriH-9IWmC-87" vertex="1">
          <mxGeometry y="30" width="160" height="30" as="geometry" />
        </mxCell>
        <mxCell id="5Sux7Pri19NriH-9IWmC-89" value="user_id (FK)&amp;nbsp; &amp;nbsp; &amp;nbsp; varchar(36)" style="text;strokeColor=none;fillColor=none;align=left;verticalAlign=middle;spacingLeft=4;spacingRight=4;overflow=hidden;points=[[0,0.5],[1,0.5]];portConstraint=eastwest;rotatable=0;whiteSpace=wrap;html=1;" parent="5Sux7Pri19NriH-9IWmC-87" vertex="1">
          <mxGeometry y="60" width="160" height="30" as="geometry" />
        </mxCell>
        <mxCell id="5Sux7Pri19NriH-9IWmC-90" value="IP&amp;nbsp; &amp;nbsp; &amp;nbsp; &amp;nbsp; &amp;nbsp; &amp;nbsp; &amp;nbsp; &amp;nbsp; &amp;nbsp; &amp;nbsp; &amp;nbsp; varchar(45)" style="text;strokeColor=none;fillColor=none;align=left;verticalAlign=middle;spacingLeft=4;spacingRight=4;overflow=hidden;points=[[0,0.5],[1,0.5]];portConstraint=eastwest;rotatable=0;whiteSpace=wrap;html=1;" parent="5Sux7Pri19NriH-9IWmC-87" vertex="1">
          <mxGeometry y="90" width="160" height="30" as="geometry" />
        </mxCell>
        <mxCell id="5Sux7Pri19NriH-9IWmC-92" value="login_at&amp;nbsp; &amp;nbsp; &amp;nbsp; &amp;nbsp; &amp;nbsp; &amp;nbsp; &amp;nbsp; &amp;nbsp; &amp;nbsp;datetime" style="text;strokeColor=none;fillColor=none;align=left;verticalAlign=middle;spacingLeft=4;spacingRight=4;overflow=hidden;points=[[0,0.5],[1,0.5]];portConstraint=eastwest;rotatable=0;whiteSpace=wrap;html=1;" parent="5Sux7Pri19NriH-9IWmC-87" vertex="1">
          <mxGeometry y="120" width="160" height="30" as="geometry" />
        </mxCell>
        <mxCell id="5Sux7Pri19NriH-9IWmC-91" style="edgeStyle=orthogonalEdgeStyle;rounded=0;orthogonalLoop=1;jettySize=auto;html=1;exitX=1;exitY=0.5;exitDx=0;exitDy=0;entryX=0;entryY=0.5;entryDx=0;entryDy=0;endArrow=none;startFill=0;" parent="1" source="5Sux7Pri19NriH-9IWmC-9" target="5Sux7Pri19NriH-9IWmC-23" edge="1">
          <mxGeometry relative="1" as="geometry" />
        </mxCell>
        <mxCell id="R4HliJlcqpmC4gIvW3pp-4" value="n" style="edgeLabel;html=1;align=center;verticalAlign=middle;resizable=0;points=[];" parent="5Sux7Pri19NriH-9IWmC-91" vertex="1" connectable="0">
          <mxGeometry x="0.6217" relative="1" as="geometry">
            <mxPoint as="offset" />
          </mxGeometry>
        </mxCell>
        <mxCell id="R4HliJlcqpmC4gIvW3pp-5" value="1" style="edgeLabel;html=1;align=center;verticalAlign=middle;resizable=0;points=[];" parent="5Sux7Pri19NriH-9IWmC-91" vertex="1" connectable="0">
          <mxGeometry x="-0.6788" y="1" relative="1" as="geometry">
            <mxPoint as="offset" />
          </mxGeometry>
        </mxCell>
        <mxCell id="R4HliJlcqpmC4gIvW3pp-6" value="Has" style="edgeLabel;html=1;align=center;verticalAlign=middle;resizable=0;points=[];" parent="5Sux7Pri19NriH-9IWmC-91" vertex="1" connectable="0">
          <mxGeometry x="-0.0877" y="-3" relative="1" as="geometry">
            <mxPoint as="offset" />
          </mxGeometry>
        </mxCell>
        <mxCell id="5Sux7Pri19NriH-9IWmC-93" style="edgeStyle=orthogonalEdgeStyle;rounded=0;orthogonalLoop=1;jettySize=auto;html=1;exitX=0;exitY=0.5;exitDx=0;exitDy=0;entryX=-0.001;entryY=0.219;entryDx=0;entryDy=0;entryPerimeter=0;endArrow=none;startFill=0;" parent="1" source="5Sux7Pri19NriH-9IWmC-89" target="5Sux7Pri19NriH-9IWmC-2" edge="1">
          <mxGeometry relative="1" as="geometry" />
        </mxCell>
        <mxCell id="R4HliJlcqpmC4gIvW3pp-7" value="Authrized" style="edgeLabel;html=1;align=center;verticalAlign=middle;resizable=0;points=[];" parent="5Sux7Pri19NriH-9IWmC-93" vertex="1" connectable="0">
          <mxGeometry x="-0.0959" y="3" relative="1" as="geometry">
            <mxPoint as="offset" />
          </mxGeometry>
        </mxCell>
        <mxCell id="R4HliJlcqpmC4gIvW3pp-8" value="1" style="edgeLabel;html=1;align=center;verticalAlign=middle;resizable=0;points=[];" parent="5Sux7Pri19NriH-9IWmC-93" vertex="1" connectable="0">
          <mxGeometry x="0.872" relative="1" as="geometry">
            <mxPoint as="offset" />
          </mxGeometry>
        </mxCell>
        <mxCell id="R4HliJlcqpmC4gIvW3pp-9" value="1" style="edgeLabel;html=1;align=center;verticalAlign=middle;resizable=0;points=[];" parent="5Sux7Pri19NriH-9IWmC-93" vertex="1" connectable="0">
          <mxGeometry x="-0.8402" y="-3" relative="1" as="geometry">
            <mxPoint as="offset" />
          </mxGeometry>
        </mxCell>
        <mxCell id="R-nzXU2yob0D8B3e0xeo-11" value="1" style="edgeLabel;html=1;align=center;verticalAlign=middle;resizable=0;points=[];" parent="5Sux7Pri19NriH-9IWmC-93" vertex="1" connectable="0">
          <mxGeometry x="-0.8402" y="-3" relative="1" as="geometry">
            <mxPoint x="-57" y="109" as="offset" />
          </mxGeometry>
        </mxCell>
        <mxCell id="R-nzXU2yob0D8B3e0xeo-12" value="1" style="edgeLabel;html=1;align=center;verticalAlign=middle;resizable=0;points=[];" parent="5Sux7Pri19NriH-9IWmC-93" vertex="1" connectable="0">
          <mxGeometry x="-0.8402" y="-3" relative="1" as="geometry">
            <mxPoint x="-253" y="104" as="offset" />
          </mxGeometry>
        </mxCell>
        <mxCell id="R4HliJlcqpmC4gIvW3pp-12" style="edgeStyle=orthogonalEdgeStyle;rounded=0;orthogonalLoop=1;jettySize=auto;html=1;exitX=0;exitY=0.5;exitDx=0;exitDy=0;entryX=1;entryY=0.5;entryDx=0;entryDy=0;endArrow=none;startFill=0;" parent="1" source="5Sux7Pri19NriH-9IWmC-2" target="5Sux7Pri19NriH-9IWmC-63" edge="1">
          <mxGeometry relative="1" as="geometry" />
        </mxCell>
        <mxCell id="R4HliJlcqpmC4gIvW3pp-14" value="1" style="edgeLabel;html=1;align=center;verticalAlign=middle;resizable=0;points=[];" parent="R4HliJlcqpmC4gIvW3pp-12" vertex="1" connectable="0">
          <mxGeometry x="-0.6891" y="1" relative="1" as="geometry">
            <mxPoint as="offset" />
          </mxGeometry>
        </mxCell>
        <mxCell id="R4HliJlcqpmC4gIvW3pp-15" value="n" style="edgeLabel;html=1;align=center;verticalAlign=middle;resizable=0;points=[];" parent="R4HliJlcqpmC4gIvW3pp-12" vertex="1" connectable="0">
          <mxGeometry x="0.7953" relative="1" as="geometry">
            <mxPoint as="offset" />
          </mxGeometry>
        </mxCell>
        <mxCell id="ThHsMFm0xfjYfEIbYlQ4-30" value="follow" style="edgeLabel;html=1;align=center;verticalAlign=middle;resizable=0;points=[];" parent="R4HliJlcqpmC4gIvW3pp-12" vertex="1" connectable="0">
          <mxGeometry x="0.0681" y="-1" relative="1" as="geometry">
            <mxPoint as="offset" />
          </mxGeometry>
        </mxCell>
        <mxCell id="ThHsMFm0xfjYfEIbYlQ4-5" style="edgeStyle=orthogonalEdgeStyle;rounded=0;orthogonalLoop=1;jettySize=auto;html=1;exitX=-0.016;exitY=0.869;exitDx=0;exitDy=0;entryX=0;entryY=0.5;entryDx=0;entryDy=0;endArrow=none;startFill=0;exitPerimeter=0;" parent="1" source="5Sux7Pri19NriH-9IWmC-2" target="5Sux7Pri19NriH-9IWmC-30" edge="1">
          <mxGeometry relative="1" as="geometry">
            <mxPoint x="128" y="153" as="sourcePoint" />
            <mxPoint x="58" y="243" as="targetPoint" />
            <Array as="points">
              <mxPoint x="27" y="-104" />
              <mxPoint x="27" y="287" />
              <mxPoint x="699" y="287" />
              <mxPoint x="699" y="176" />
            </Array>
          </mxGeometry>
        </mxCell>
        <mxCell id="ThHsMFm0xfjYfEIbYlQ4-8" value="1" style="edgeLabel;html=1;align=center;verticalAlign=middle;resizable=0;points=[];" parent="ThHsMFm0xfjYfEIbYlQ4-5" vertex="1" connectable="0">
          <mxGeometry x="-0.965" y="-3" relative="1" as="geometry">
            <mxPoint as="offset" />
          </mxGeometry>
        </mxCell>
        <mxCell id="ThHsMFm0xfjYfEIbYlQ4-9" value="n" style="edgeLabel;html=1;align=center;verticalAlign=middle;resizable=0;points=[];" parent="ThHsMFm0xfjYfEIbYlQ4-5" vertex="1" connectable="0">
          <mxGeometry x="0.9642" y="-2" relative="1" as="geometry">
            <mxPoint as="offset" />
          </mxGeometry>
        </mxCell>
        <mxCell id="ThHsMFm0xfjYfEIbYlQ4-10" value="&amp;nbsp;comment&amp;nbsp;" style="edgeLabel;html=1;align=center;verticalAlign=middle;resizable=0;points=[];" parent="ThHsMFm0xfjYfEIbYlQ4-5" vertex="1" connectable="0">
          <mxGeometry x="0.2198" relative="1" as="geometry">
            <mxPoint as="offset" />
          </mxGeometry>
        </mxCell>
        <mxCell id="ThHsMFm0xfjYfEIbYlQ4-13" style="edgeStyle=orthogonalEdgeStyle;rounded=0;orthogonalLoop=1;jettySize=auto;html=1;exitX=1;exitY=0.5;exitDx=0;exitDy=0;entryX=1;entryY=0.5;entryDx=0;entryDy=0;endArrow=none;startFill=0;" parent="1" source="ThHsMFm0xfjYfEIbYlQ4-12" target="5Sux7Pri19NriH-9IWmC-28" edge="1">
          <mxGeometry relative="1" as="geometry">
            <Array as="points">
              <mxPoint x="663" y="-269" />
              <mxPoint x="663" y="-390" />
              <mxPoint x="994" y="-390" />
              <mxPoint x="994" y="115" />
              <mxPoint x="990" y="115" />
            </Array>
          </mxGeometry>
        </mxCell>
        <mxCell id="ThHsMFm0xfjYfEIbYlQ4-14" value="1" style="edgeLabel;html=1;align=center;verticalAlign=middle;resizable=0;points=[];" parent="ThHsMFm0xfjYfEIbYlQ4-13" vertex="1" connectable="0">
          <mxGeometry x="0.977" y="1" relative="1" as="geometry">
            <mxPoint x="10" y="2" as="offset" />
          </mxGeometry>
        </mxCell>
        <mxCell id="ThHsMFm0xfjYfEIbYlQ4-16" value="n" style="edgeLabel;html=1;align=center;verticalAlign=middle;resizable=0;points=[];" parent="ThHsMFm0xfjYfEIbYlQ4-13" vertex="1" connectable="0">
          <mxGeometry x="-0.9755" y="-2" relative="1" as="geometry">
            <mxPoint x="-6" y="-11" as="offset" />
          </mxGeometry>
        </mxCell>
        <mxCell id="ThHsMFm0xfjYfEIbYlQ4-29" value="&amp;nbsp;Has&amp;nbsp;" style="edgeLabel;html=1;align=center;verticalAlign=middle;resizable=0;points=[];" parent="ThHsMFm0xfjYfEIbYlQ4-13" vertex="1" connectable="0">
          <mxGeometry x="-0.0922" y="1" relative="1" as="geometry">
            <mxPoint as="offset" />
          </mxGeometry>
        </mxCell>
        <mxCell id="R-nzXU2yob0D8B3e0xeo-1" value="EMOTION" style="swimlane;fontStyle=0;childLayout=stackLayout;horizontal=1;startSize=30;horizontalStack=0;resizeParent=1;resizeParentMax=0;resizeLast=0;collapsible=1;marginBottom=0;whiteSpace=wrap;html=1;fillColor=#0050ef;fontColor=#ffffff;strokeColor=#001DBC;" parent="1" vertex="1">
          <mxGeometry x="-211" y="-202" width="181" height="90" as="geometry" />
        </mxCell>
        <mxCell id="R-nzXU2yob0D8B3e0xeo-2" value="emotion_id (PK)&amp;nbsp; &amp;nbsp; &amp;nbsp; &amp;nbsp;varchar(36)" style="text;strokeColor=none;fillColor=none;align=left;verticalAlign=middle;spacingLeft=4;spacingRight=4;overflow=hidden;points=[[0,0.5],[1,0.5]];portConstraint=eastwest;rotatable=0;whiteSpace=wrap;html=1;" parent="R-nzXU2yob0D8B3e0xeo-1" vertex="1">
          <mxGeometry y="30" width="181" height="30" as="geometry" />
        </mxCell>
        <mxCell id="R-nzXU2yob0D8B3e0xeo-3" value="type&amp;nbsp; &amp;nbsp; &amp;nbsp; &amp;nbsp; &amp;nbsp; &amp;nbsp; &amp;nbsp; &amp;nbsp; &amp;nbsp; &amp;nbsp; &amp;nbsp; &amp;nbsp; &amp;nbsp;varchar(36)" style="text;strokeColor=none;fillColor=none;align=left;verticalAlign=middle;spacingLeft=4;spacingRight=4;overflow=hidden;points=[[0,0.5],[1,0.5]];portConstraint=eastwest;rotatable=0;whiteSpace=wrap;html=1;" parent="R-nzXU2yob0D8B3e0xeo-1" vertex="1">
          <mxGeometry y="60" width="181" height="30" as="geometry" />
        </mxCell>
        <mxCell id="R-nzXU2yob0D8B3e0xeo-8" style="edgeStyle=orthogonalEdgeStyle;rounded=0;orthogonalLoop=1;jettySize=auto;html=1;exitX=0;exitY=0.5;exitDx=0;exitDy=0;entryX=0;entryY=0.5;entryDx=0;entryDy=0;endArrow=none;startFill=0;" parent="1" source="R-nzXU2yob0D8B3e0xeo-2" target="MXvUK92-F01Mqr0vnkUZ-1" edge="1">
          <mxGeometry relative="1" as="geometry">
            <Array as="points">
              <mxPoint x="-211" y="-162" />
              <mxPoint x="-231" y="-162" />
              <mxPoint x="-231" y="196" />
              <mxPoint x="260" y="196" />
            </Array>
          </mxGeometry>
        </mxCell>
        <mxCell id="R-nzXU2yob0D8B3e0xeo-9" style="edgeStyle=orthogonalEdgeStyle;rounded=0;orthogonalLoop=1;jettySize=auto;html=1;entryX=0;entryY=0.75;entryDx=0;entryDy=0;endArrow=none;startFill=0;" parent="1" source="R-nzXU2yob0D8B3e0xeo-1" target="5Sux7Pri19NriH-9IWmC-39" edge="1">
          <mxGeometry relative="1" as="geometry">
            <Array as="points">
              <mxPoint x="-8" y="-157" />
              <mxPoint x="-8" y="-368" />
              <mxPoint x="237" y="-368" />
              <mxPoint x="237" y="-240" />
            </Array>
          </mxGeometry>
        </mxCell>
      </root>
    </mxGraphModel>
  </diagram>
</mxfile>
